<svg id="Camada_1" data-name="Camada 1" xmlns="http://www.w3.org/2000/svg" viewBox="0 0 200 117.94"><defs><style>.cls-1{fill:#1d5840;}.cls-2{fill:#f9e900;}</style></defs><title>Prancheta 1</title><path class="cls-1" d="M.05.63H191.21a13.27,13.27,0,0,1,5,1.06A5.77,5.77,0,0,1,200,7.5q-.06,51.35,0,102.68c0,3.86-2,6.28-5.91,7a21.41,21.41,0,0,1-3.67.21q-86.94,0-173.86,0c-2.78,0-5.57,0-8.36,0-5.24-.07-8-2.88-8-8.06ZM125.64,76.69c0,5.83,0,11.67,0,17.5a49.35,49.35,0,0,0,.14,5.44,6.59,6.59,0,0,0,6.61,5.91q20.22,0,40.45,0a6.56,6.56,0,0,0,5-2.21c1.64-1.76,1.89-3.92,1.89-6.15q0-20.33,0-40.65a14.32,14.32,0,0,0-.2-2.7c-.68-3.74-3.08-5.8-6.88-5.8q-20,0-40.06,0a6.52,6.52,0,0,0-6.8,5.89,17.58,17.58,0,0,0-.14,2.72Q125.64,66.66,125.64,76.69ZM92.8,86.34a4.8,4.8,0,0,0,1-.16c8.41-4.18,16.83-8.34,25.2-12.62a2.87,2.87,0,0,0,1.16-2.19c.1-5.31.13-10.63,0-15.94a7.83,7.83,0,0,0-7.45-7.36q-18.57-.1-37.14,0a7.17,7.17,0,0,0-7,7.17q0,21.09,0,42.19c0,4.83,3.37,8.13,8.25,8.14h23.91c7.33,0,14.65,0,22,0,1.39,0,2.36-.2,1.79-2q-2-6.19-3.92-12.41a2.18,2.18,0,0,0-2.49-1.63c-3.95,0-7.9,0-11.86,0-5.7,0-11.4,0-17.11,0-2.27,0-3-.64-3-2.6q0-9.91,0-19.83c0-2.16.7-2.81,2.82-2.83,3.24,0,6.48,0,9.72,0a12,12,0,0,1,1.79-.13c0,.17,0,1.1-.23,1-1.86,1.14-3.3,2.63-5.22,3.66-1.43.76-2.41,1.45-2.37,3.11.1,4.08,0,8.16,0,12.25C92.66,84.82,92.74,85.5,92.8,86.34ZM20.31,57.5V73.05c0,7.91,0,15.81,0,23.72,0,5,3.41,8.73,8,8.76,12.76.07,25.53,0,38.3,0,1.58,0,2.14-.51,1.54-2.12-1.52-4-3-8-4.4-12a2.44,2.44,0,0,0-2.74-1.84c-5.44.06-10.88,0-16.33,0-6,0-6.12-.07-6.12-6V18.8c0-3.08,0-3.08-3.14-3.08H23c-2.69,0-2.7,0-2.71,2.7Z"/><path class="cls-2" d="M125.66,76.69q0-10,0-20a17.58,17.58,0,0,1,.14-2.72,6.53,6.53,0,0,1,6.8-5.89q20,0,40.06,0c3.81,0,6.21,2.06,6.89,5.8a15.2,15.2,0,0,1,.19,2.7q0,20.33,0,40.65c0,2.23-.25,4.39-1.9,6.15a6.56,6.56,0,0,1-5,2.21q-20.22,0-40.45,0a6.58,6.58,0,0,1-6.6-5.91,47,47,0,0,1-.15-5.44C125.65,88.36,125.66,82.52,125.66,76.69Zm17.1.26c0,3.1,0,6.21,0,9.31,0,2.07,1,3.21,3,3.26,4.46.1,8.92.11,13.38,0,2.11-.06,3.17-1.17,3.18-3.17q.09-9.51,0-19c0-2.08-1-3-3-3q-6.79-.07-13.58,0c-2.24,0-3,.85-3,3.13C142.73,70.61,142.75,73.78,142.76,77Z"/><path class="cls-2" d="M92.83,86.34c-.06-.84-.15-1.52-.15-2.2,0-4.09.06-8.17,0-12.25a3.33,3.33,0,0,1,2-3.39c1.92-1,4.07-2.35,5.6-3.38a.53.53,0,0,0,0-.51c-.35-.37-1.08-.3-1.58-.31-3.24,0-6.48,0-9.72,0-2.11,0-2.8.67-2.82,2.83q-.07,9.92,0,19.83c0,2,.76,2.58,3,2.6,5.7,0,11.4,0,17.11,0,4,0,7.91,0,11.86,0a2.17,2.17,0,0,1,2.48,1.63q1.92,6.21,3.93,12.41c.57,1.77-.41,2-1.79,2-7.33,0-14.65,0-22,0H76.86c-4.87,0-8.23-3.31-8.24-8.14q0-21.09,0-42.19a7.17,7.17,0,0,1,6.95-7.17q18.57-.09,37.14,0a7.83,7.83,0,0,1,7.45,7.36c.11,5.31.08,10.63,0,15.94A2.87,2.87,0,0,1,119,73.56c-8.36,4.28-16.78,8.44-25.2,12.62A4.64,4.64,0,0,1,92.83,86.34Z"/><path class="cls-2" d="M20.33,57.5q0-19.55,0-39.08c0-2.69,0-2.7,2.71-2.7H35.49c3.14,0,3.15,0,3.15,3.08q0,32.37,0,64.74c0,6,.08,6,6.13,6,5.44,0,10.88,0,16.33,0a2.43,2.43,0,0,1,2.73,1.84c1.39,4,2.89,8,4.4,12,.61,1.61,0,2.12-1.54,2.12-12.77,0-25.53,0-38.3,0-4.61,0-8-3.79-8-8.76-.05-7.91,0-15.81,0-23.72Z"/><path class="cls-1" d="M142.76,77c0-3.17,0-6.34,0-9.51,0-2.28.77-3.1,3-3.13q6.78-.07,13.58,0c2,0,3,.92,3,3q.09,9.51,0,19c0,2-1.07,3.11-3.18,3.17-4.46.12-8.92.11-13.38,0-2.07,0-3-1.19-3-3.26C142.73,83.16,142.76,80.05,142.76,77Z"/></svg>